<svg xmlns="http://www.w3.org/2000/svg" viewBox="0 0 24 24" fill="none">
  <!-- Water surface with gentle waves -->
  <path d="M3 14C3 14 5 12 8 12C11 12 12 14 15 14C18 14 19 12 22 12" stroke="#89b4fa" stroke-width="1.5" fill="none" stroke-linecap="round" stroke-linejoin="round"/>
  <!-- Second wave layer -->
  <path d="M3 18C3 18 5 16.5 7.5 16.5C10 16.5 11 18 13.5 18C16 18 17 16.5 19.5 16.5C22 16.5 22 18 22 18" stroke="#89b4fa" stroke-width="1.5" fill="none" stroke-linecap="round" stroke-linejoin="round" opacity="0.5"/>
  <!-- Sun/moon reflection on water -->
  <circle cx="12" cy="8" r="2.5" stroke="#f9e2af" stroke-width="1.5" fill="none"/>
  <path d="M12 5.5V4M12 11V12.5M14.5 8H16M8 8H9.5" stroke="#f9e2af" stroke-width="1.5" fill="none" stroke-linecap="round" opacity="0.7"/>
</svg>
